<?xml version="1.0" encoding="UTF-8" standalone="no"?>
<!-- Created with Inkscape (http://www.inkscape.org/) -->

<svg
   xmlns:dc="http://purl.org/dc/elements/1.1/"
   xmlns:cc="http://creativecommons.org/ns#"
   xmlns:rdf="http://www.w3.org/1999/02/22-rdf-syntax-ns#"
   xmlns:svg="http://www.w3.org/2000/svg"
   xmlns="http://www.w3.org/2000/svg"
   xmlns:sodipodi="http://sodipodi.sourceforge.net/DTD/sodipodi-0.dtd"
   xmlns:inkscape="http://www.inkscape.org/namespaces/inkscape"
   width="210mm"
   height="297mm"
   viewBox="0 0 210 297"
   version="1.1"
   id="svg8"
   inkscape:version="0.92.4 (5da689c313, 2019-01-14)"
   sodipodi:docname="dvarhas_world.svg">
  <defs
     id="defs2">
    <clipPath
       id="clipPath831"
       clipPathUnits="userSpaceOnUse">
      <path
         inkscape:connector-curvature="0"
         id="path829"
         d="M 0,250 H 250 V 0 H 0 Z" />
    </clipPath>
  </defs>
  <sodipodi:namedview
     id="base"
     pagecolor="#ffffff"
     bordercolor="#666666"
     borderopacity="1.0"
     inkscape:pageopacity="0.0"
     inkscape:pageshadow="2"
     inkscape:zoom="2.6318538"
     inkscape:cx="403.48282"
     inkscape:cy="719.52682"
     inkscape:document-units="mm"
     inkscape:current-layer="g825"
     showgrid="false"
     inkscape:window-width="1920"
     inkscape:window-height="1017"
     inkscape:window-x="1912"
     inkscape:window-y="-8"
     inkscape:window-maximized="1" />
  <metadata
     id="metadata5">
    <rdf:RDF>
      <cc:Work
         rdf:about="">
        <dc:format>image/svg+xml</dc:format>
        <dc:type
           rdf:resource="http://purl.org/dc/dcmitype/StillImage" />
        <dc:title></dc:title>
      </cc:Work>
    </rdf:RDF>
  </metadata>
  <g
     inkscape:label="Layer 1"
     inkscape:groupmode="layer"
     id="layer1">
    <g
       transform="matrix(0.35277777,0,0,-0.35277777,64.306497,148.71642)"
       inkscape:label="rob"
       id="g823">
      <path
         style="fill:#240076;fill-opacity:1;stroke:none;stroke-width:0.74063396;stroke-opacity:1"
         id="path886"
         transform="scale(1,-1)"
         sodipodi:type="arc"
         sodipodi:cx="125.61257"
         sodipodi:cy="-125.14097"
         sodipodi:rx="119.2906"
         sodipodi:ry="119.4921"
         sodipodi:start="4.4896972"
         sodipodi:end="4.4882014"
         sodipodi:open="true"
         d="M 99.266558,-241.68239 A 119.2906,119.4921 0 0 1 241.94761,-151.57506 119.2906,119.4921 0 0 1 152.04559,-8.6193145 119.2906,119.4921 0 0 1 9.2973015,-98.619727 119.2906,119.4921 0 0 1 99.092559,-241.64279" />
      <g
         id="g825">
        <path
           inkscape:connector-curvature="0"
           id="path835"
           style="fill:#000000;fill-opacity:1;fill-rule:nonzero;stroke:none"
           d="m 54.8438,34.7813 c 35.644,-28.927 82.289,-35.328 127.514,-9.814 46.325,26.134 64.021,83.834 57.666,109.056 -5.778,-3.77 -3.18054,-3.26814 -8.68554,-7.32914 -1.78884,-2.09135 -6.47574,-4.26259 -8.29599,-5.30393 -2.5707,-1.47068 -5.6469,1.87601 -6.87788,0.67412 -1.87487,-1.83055 -1.55024,-6.66018 -1.92559,-7.94805 -4.89128,-4.89894 -8.4397,-4.71778 -13.55704,-4.5898 -5.2822,0.1321 -11.28425,0.41913 -14.24596,5.9178 -2.76,4.395 -6.245,8.418 -12.132,2.07 -6.099,-6.578 -16.34568,-5.88125 -20.184,-0.516 -3.298,3.047 -6.75721,5.94664 -10.445,1.791 -7.23193,-1.41243 -15.26868,-0.23154 -21.78093,-0.11 -6.36,2.736 -13.83549,11.32219 -17.74107,17.178 -3.8478,4.17935 -5.357444,11.68613 -2.98835,15.74536 3.53936,6.06438 7.41149,1.22487 9.47762,2.64066 3.524,2.415 4.69173,3.64198 0.27273,10.57998 -2.341,3.676 -1.50561,10.50277 1.29639,14.78777 4.231,6.473 6.27861,9.66197 2.34161,16.48797 -4.812,8.341 -8.358,19.84026 -2.04,30.00726 3.69186,2.21773 5.74527,6.18916 8.10904,5.85933 1.79778,-0.25086 2.7185,-2.29339 4.84696,-3.56433 2.933,-1.751 5.584,-4.244 8.731,-5.309 3.58667,-1.21271 9.38305,-0.0559 13.68872,-1.17562 3.72543,-0.96879 5.90638,-4.21311 9.76351,-5.25219 4.91012,1.35917 1.34376,4.99429 3.01693,7.69583 1.6261,2.62553 3.37085,5.44265 5.13284,8.28698 -31.075,13.465 -63.62176,8.96172 -90.872756,-4.02428 -0.158471,-2.39251 3.001575,-6.43787 2.849801,-8.73632 -0.176523,-2.67323 -1.227651,-4.96382 -1.437037,-7.19698 -0.589848,-6.29094 0.393683,-8.15481 -0.48085,-14.8311 -0.369456,-2.42204 -1.219158,-4.53832 -1.594158,-5.06332 -8.404,-11.745 -8.358,-15.648 0.301,-26.255 2.500429,-3.06348 4.232164,-9.43941 4.338272,-13.40482 0.113625,-4.24633 0.509093,-12.90826 -2.133832,-16.29271 -7.721,-9.888 -8.105651,-17.43863 4.474349,-20.07763 8.029381,-1.73311 10.399359,-2.41426 14.202231,-5.43904 1.503376,-1.19578 3.455169,-6.56451 -0.71602,-7.5548 -5.186652,-1.23138 -4.40455,-3.0172 -3.339204,-4.385821 0.968147,-1.243748 1.741779,-1.994126 5.922204,-1.116179 11.791,-0.58 18.479,-8.939 26.299,-15.925 5.20486,-6.130283 6.415,-2.15 9.235,-1.38 6.466,1.762 12.381,3.201 17.718,-2.466 1.486,-1.578 3.89,-4.012 5.3,-3.672 12.467,2.997 21.44,-6.834 32.619,-8.766 4.263,-0.737 13.062,-2.152 10.914,-11.341 -1.838,-7.866 -7.771,-8.406 -14.328,-8.122 -4.871,0.212 -9.813,0.478 -14.614,-0.137 -6.00207,-0.0946 -4.949,-2.158 -6.096,-4.106 -4.505,-7.651 -17.049,-10.651 -24.059,-5.329 -5.14468,3.906819 -12.8705,5.292823 -19.33189,3.56606 -1.83299,-0.489855 -0.53377,-2.745446 -2.07546,-3.749828 -1.12378,-0.732125 -6.06565,-1.107232 -6.06565,-1.107232 -4.95652,-0.50223 -3.93344,-3.870891 -6.03436,-5.123073 -5.34368,-3.184914 -11.292494,-3.705442 -18.04764,-3.716927 -10.512,-0.017 -20.355,0.7 -28.787,7.805 -0.737,0.621 -2.451,0.082 -5.118,0.082 m 70.456,213.259 c 66.665,-0.074 122.771,-56.609 122.648,-123.584 -0.124,-66.588 -56.767,-122.58 -123.829,-122.404 -66.097,0.175 -122.183,56.691 -122.159,123.097 0.023,66.754 56.441,122.966 123.34,122.891"
           sodipodi:nodetypes="ccccsscsccccccscccccsccscsccsscccsccssscccccccccccsscscccccccc"
           inkscape:export-xdpi="96"
           inkscape:export-ydpi="96" />
        <path
           inkscape:connector-curvature="0"
           id="path843"
           style="fill:#000000;fill-opacity:1;fill-rule:nonzero;stroke:none"
           d="m 186.05894,86.333837 c 0.51536,-2.120908 1.38412,-7.470599 0.23478,-8.02628 -2.71098,-1.310704 -5.50886,1.674351 -6.07021,2.418301 -2.81094,2.214145 -5.56241,3.227764 -8.89145,3.147344 -0.32546,-0.01538 -2.42411,-0.647143 -2.79376,-0.663701 -1.74907,-0.529522 -1.9096,-0.298823 -2.79286,-0.373638 -0.66007,-0.02072 -1.46781,0.02144 -2.18216,0.553566 -1.18317,0.866176 -3.02473,1.444736 -4.69006,1.290541 -2.53421,-0.806209 -2.89428,-2.820507 -4.84038,-0.03535 -0.55838,0.369799 -1.33248,2.259329 -1.55322,3.938331 -0.13586,1.033361 1.87927,2.886643 2.34192,3.35713 1.15294,1.17248 2.34089,0.710693 4.15106,0.978162 2.08218,0.81307 1.37521,2.153271 3.2655,1.765348 0.68673,-0.448106 2.47056,-2.08143 3.59659,-1.721828 1.64327,0.524789 -0.33497,1.843753 4.33486,2.631145 2.9484,0.169112 3.47634,0.783047 6.20311,1.472428 2.84099,0.331699 6.09212,-0.01228 6.28347,-0.101798 3.76011,-1.307486 2.17523,-3.378391 2.20719,-5.38375"
           sodipodi:nodetypes="cscccccccssccscccc"
           inkscape:export-xdpi="96"
           inkscape:export-ydpi="96" />
      </g>
    </g>
  </g>
</svg>
