<?xml version="1.0" encoding="UTF-8" standalone="no"?>
<!-- Created with Inkscape (http://www.inkscape.org/) -->

<svg
   xmlns:dc="http://purl.org/dc/elements/1.1/"
   xmlns:cc="http://creativecommons.org/ns#"
   xmlns:rdf="http://www.w3.org/1999/02/22-rdf-syntax-ns#"
   xmlns:svg="http://www.w3.org/2000/svg"
   xmlns="http://www.w3.org/2000/svg"
   xmlns:sodipodi="http://sodipodi.sourceforge.net/DTD/sodipodi-0.dtd"
   xmlns:inkscape="http://www.inkscape.org/namespaces/inkscape"
   width="210mm"
   height="297mm"
   viewBox="0 0 210 297"
   version="1.1"
   id="svg8"
   inkscape:version="0.92.4 (5da689c313, 2019-01-14)"
   sodipodi:docname="dvarhas_world.svg">
  <defs
     id="defs2">
    <clipPath
       id="clipPath831"
       clipPathUnits="userSpaceOnUse">
      <path
         inkscape:connector-curvature="0"
         id="path829"
         d="M 0,250 H 250 V 0 H 0 Z" />
    </clipPath>
  </defs>
  <sodipodi:namedview
     id="base"
     pagecolor="#ffffff"
     bordercolor="#666666"
     borderopacity="1.0"
     inkscape:pageopacity="0.0"
     inkscape:pageshadow="2"
     inkscape:zoom="1.4"
     inkscape:cx="308.49505"
     inkscape:cy="688.95874"
     inkscape:document-units="mm"
     inkscape:current-layer="g823"
     showgrid="false"
     inkscape:window-width="1920"
     inkscape:window-height="1017"
     inkscape:window-x="1912"
     inkscape:window-y="-8"
     inkscape:window-maximized="1" />
  <metadata
     id="metadata5">
    <rdf:RDF>
      <cc:Work
         rdf:about="">
        <dc:format>image/svg+xml</dc:format>
        <dc:type
           rdf:resource="http://purl.org/dc/dcmitype/StillImage" />
        <dc:title></dc:title>
      </cc:Work>
    </rdf:RDF>
  </metadata>
  <g
     inkscape:label="Layer 1"
     inkscape:groupmode="layer"
     id="layer1">
    <g
       transform="matrix(0.35277777,0,0,-0.35277777,64.306497,148.71642)"
       inkscape:label="rob"
       id="g823">
      <g
         id="g825">
        <g
           clip-path="url(#clipPath831)"
           id="g827">
          <g
             transform="translate(54.8438,34.7813)"
             id="g833">
            <path
               inkscape:connector-curvature="0"
               id="path835"
               style="fill:#231f20;fill-opacity:1;fill-rule:nonzero;stroke:none"
               d="m 0,0 c 35.644,-28.927 82.289,-35.328 127.514,-9.814 46.325,26.134 64.021,83.834 57.666,109.056 -5.778,-3.77 -3.18054,-3.268143 -8.68554,-7.329143 -1.78884,-2.091347 -6.47574,-4.262583 -8.29599,-5.303929 -2.5707,-1.470676 -5.6469,1.876014 -6.87788,0.674127 -1.87487,-1.830555 -1.55024,-6.660187 -1.92559,-7.948055 -4.89128,-4.898943 -8.4397,-4.717775 -13.55704,-4.589799 -5.2822,0.1321 -11.28425,0.419125 -14.24596,5.917799 -2.76,4.395 -6.245,8.418 -12.132,2.07 -6.099,-6.578 -16.34568,-5.88125 -20.184,-0.516 -3.298,3.047 -6.757214,5.946643 -10.445,1.791 -7.231929,-1.412429 -15.268679,-0.231536 -21.780929,-0.11 -6.36,2.736 -13.835493,11.322193 -17.741071,17.178 -3.847796,4.17935 -5.357444,11.68613 -2.988351,15.74536 3.539362,6.06438 7.411486,1.22487 9.477616,2.64066 3.524,2.415 4.691735,3.64198 0.272735,10.57998 -2.341,3.676 -1.505614,10.50277 1.296386,14.78777 4.231,6.473 6.278614,9.66197 2.341614,16.48797 -4.812,8.341 -8.358,19.84026 -2.04,30.00726 3.69186,2.21773 5.745271,6.18916 8.109035,5.85933 1.797781,-0.25086 2.718508,-2.29339 4.846965,-3.56433 2.933,-1.751 5.584,-4.244 8.731,-5.309 3.586671,-1.21271 9.383054,-0.0559 13.688722,-1.17562 3.725433,-0.96879 5.90638,-4.21311 9.763508,-5.25219 4.91012,1.35917 1.34376,4.99429 3.01693,7.69583 1.6261,2.62553 3.37085,5.44265 5.13284,8.28698 -31.075,13.465 -63.621756,8.96172 -90.872756,-4.02428 -0.158471,-2.39251 3.001575,-6.43787 2.849801,-8.73632 -0.176523,-2.67323 -1.227651,-4.96382 -1.437037,-7.19698 -0.589848,-6.29094 0.393683,-8.15481 -0.48085,-14.8311 C 20.647702,160.65528 19.798,158.539 19.423,158.014 c -8.404,-11.745 -8.358,-15.648 0.301,-26.255 2.500429,-3.06348 4.232164,-9.43941 4.338272,-13.40482 0.113625,-4.24633 0.509093,-12.90826 -2.133832,-16.29271 -7.721,-9.888 -8.105651,-17.438633 4.474349,-20.077633 C 34.43217,80.250728 36.802148,79.569581 40.60502,76.5448 42.108396,75.349024 44.060189,69.980293 39.889,68.99 34.702348,67.758623 35.48445,65.972795 36.549796,64.604179 37.517943,63.360431 38.291575,62.610053 42.472,63.488 c 11.791,-0.58 18.479,-8.939 26.299,-15.925 5.204861,-6.130283 6.415,-2.15 9.235,-1.38 6.466,1.762 12.381,3.201 17.718,-2.466 1.486,-1.578 3.89,-4.012 5.3,-3.672 12.467,2.997 21.44,-6.834 32.619,-8.766 4.263,-0.737 13.062,-2.152 10.914,-11.341 -1.838,-7.866 -7.771,-8.406 -14.328,-8.122 -4.871,0.212 -9.813,0.478 -14.614,-0.137 -6.00207,-0.0946 -4.949,-2.158 -6.096,-4.106 C 105.014,-0.078 92.47,-3.078 85.46,2.244 80.315317,6.1508189 72.5895,7.5368227 66.128113,5.8100604 64.295117,5.3202045 65.594336,3.0646138 64.05265,2.0602317 62.928868,1.3281072 57.987,0.953 57.987,0.953 53.030476,0.45077006 54.053555,-2.9178914 51.952635,-4.170073 46.608962,-7.3549872 40.660146,-7.8755153 33.905,-7.887 23.393,-7.904 13.55,-7.187 5.118,-0.082 4.381,0.539 2.667,0 0,0 M 70.456,213.259 C 137.121,213.185 193.227,156.65 193.104,89.675 192.98,23.087 136.337,-32.905 69.275,-32.729 3.178,-32.554 -52.908,23.962 -52.884,90.368 c 0.023,66.754 56.441,122.966 123.34,122.891"
               sodipodi:nodetypes="ccccsscsccccccscccccsccscsccsscccsccssscccccccccccsscscccccccc" />
          </g>
          <g
             transform="translate(183.7861,76.5322)"
             id="g837" />
          <g
             transform="translate(183.7861,76.5322)"
             id="g841">
            <path
               inkscape:connector-curvature="0"
               id="path843"
               style="fill:#231f20;fill-opacity:1;fill-rule:nonzero;stroke:none"
               d="M 2.2728433,9.8016367 C 1.4489149,6.3581847 3.6569586,2.3310381 2.5076231,1.7753574 -0.2033565,0.46465319 -3.0012402,3.4497077 -3.5625884,4.1936576 -6.3735253,6.4078028 -9.1250019,7.4214224 -12.454043,7.3410019 -12.779496,7.3256239 -14.878148,6.6938585 -15.247797,6.6773007 -16.99687,6.1477785 -17.324813,6.344996 -18.040658,6.3036625 c -0.660075,-0.02072 -1.417593,0.5738996 -2.182166,0.5535664 -1.18317,0.8661764 -3.024729,1.4447358 -4.690057,1.2905413 -2.534208,-0.8062096 -2.894277,-2.8205076 -4.840381,-0.03535 -0.558378,0.3697984 -1.332475,2.2593288 -1.553219,3.9383308 -0.13586,1.033361 1.879272,2.886643 2.34192,3.35713 1.152945,1.17248 2.340887,0.710693 4.151065,0.978162 1.965036,0.29035 1.347744,1.928052 1.987918,1.931369 0.44305,0.0023 1.186311,0.197099 1.277573,-0.166021 0.251469,-1.000561 2.47057,-2.08143 3.596593,-1.721828 1.643272,0.524789 -0.268001,1.910717 4.401829,2.028466 2.21179,0.303041 4.4138381,2.172556 6.2031043,1.957919 2.7740286,0.532592 6.0251628,0.104912 6.2165134,0.01539 3.7601074,-1.307486 2.1752219,-3.378391 2.2071886,-5.38375"
               sodipodi:nodetypes="cscccccccsssssscccc" />
          </g>
        </g>
      </g>
    </g>
  </g>
</svg>
